<?xml version="1.0" encoding="utf-8"?>
<!-- Generator: Adobe Illustrator 16.0.3, SVG Export Plug-In . SVG Version: 6.00 Build 0)  -->
<!DOCTYPE svg PUBLIC "-//W3C//DTD SVG 1.1//EN" "http://www.w3.org/Graphics/SVG/1.1/DTD/svg11.dtd">
<svg version="1.1" xmlns="http://www.w3.org/2000/svg" xmlns:xlink="http://www.w3.org/1999/xlink" x="0px" y="0px"
	 width="1706.441px" height="560px" viewBox="0 0 1706.441 560" enable-background="new 0 0 1706.441 560" xml:space="preserve">
<g id="Capa_3" display="none">
	<rect display="inline" width="1706.441" height="560"/>
</g>
<g id="Layer_1" display="none">
	<path display="inline" fill="#5EF90F" d="M78.386,0h283.874c21.556,0,41.152,8.795,55.371,23.014s23.015,33.815,23.015,55.371
		v174.772c0,21.556-8.796,41.153-23.015,55.371c-14.219,14.219-33.815,23.015-55.371,23.015H213.829L94.837,433.854
		c-5.514,4.739-13.854,4.102-18.594-1.459c-2.324-2.734-3.373-6.106-3.145-9.434l6.334-91.465h-1.048
		c-21.556,0-41.152-8.795-55.371-23.014C8.796,294.311,0,274.713,0,253.158V78.385C0,56.83,8.796,37.233,23.015,23.014
		C37.188,8.795,56.784,0,78.386,0L78.386,0L78.386,0z M287.657,133.848c20.416,0,36.959,16.543,36.959,36.959
		c0,20.417-16.543,36.96-36.959,36.96c-20.417,0-36.96-16.543-36.96-36.96C250.697,150.391,267.24,133.848,287.657,133.848
		L287.657,133.848z M153.535,133.848c20.417,0,36.959,16.543,36.959,36.959c0,20.417-16.542,36.96-36.959,36.96
		c-20.417,0-36.959-16.543-36.959-36.96C116.576,150.391,133.119,133.848,153.535,133.848L153.535,133.848z M486.674,127.513
		c15.357,2.962,29.121,10.527,39.785,21.191c13.898,13.899,22.559,33.086,22.559,54.231v174.772
		c0,21.146-8.613,40.332-22.559,54.232c-13.9,13.899-33.086,22.559-54.232,22.559h-2.78l6.472,93.15l0,0
		c0.182,2.917-0.684,5.925-2.734,8.295c-4.147,4.876-11.484,5.423-16.315,1.275L337.422,451.491H179.968l77.519-78.842h164.245
		c35.82,0,65.168-29.303,65.168-65.169V132.663C486.855,130.931,486.811,129.199,486.674,127.513L486.674,127.513L486.674,127.513z
		 M362.213,26.432H78.386c-14.265,0-27.253,5.833-36.687,15.267S26.433,64.076,26.433,78.385v174.772
		c0,14.264,5.833,27.252,15.267,36.686s22.422,15.268,36.687,15.268h15.221v0.045l0.866,0.045
		c7.246,0.502,12.761,6.791,12.259,14.037l-5.15,74.102l98.165-84.401c2.369-2.369,5.65-3.827,9.297-3.827h153.17
		c14.265,0,27.253-5.834,36.687-15.268s15.267-22.422,15.267-36.686V78.385c0-14.264-5.833-27.252-15.267-36.686
		S376.478,26.432,362.213,26.432L362.213,26.432L362.213,26.432z"/>
</g>
<g id="Capa_2">
	<g>
		<path fill="#FFFFFF" d="M505.497,510.981c-8.208-0.957-16.317-2.577-24.333-4.866c-8.588-2.291-15.65-5.391-21.184-9.305
			c-5.538-3.909-10.02-9.018-13.455-15.314c-3.435-6.679-5.152-14.314-5.152-22.902v-77.292c0-9.349,1.905-17.794,5.726-25.335
			c3.815-7.537,8.968-13.499,15.458-17.892c6.105-4.008,13.405-7.442,21.899-10.306c8.489-2.863,16.841-4.768,25.049-5.725
			c6.87-0.762,15.172-1.146,24.905-1.146c26.336,0,51.528,2.004,75.574,6.011v33.78c-22.141-5.341-47.332-8.016-75.574-8.016
			c-32.255,0-48.38,9.353-48.38,28.054v74.717c0,9.16,4.339,15.65,13.025,19.467c8.682,3.819,21.801,5.725,39.362,5.725
			c9.348,0,19.367-1.432,30.058-4.294v-43.227h-30.344v-29.199h72.998v96.472c-9.546,3.436-21.712,6.299-36.499,8.588
			c-14.792,2.291-28.39,3.436-40.794,3.436C523.147,512.412,513.7,511.934,505.497,510.981z"/>
		<path fill="#FFFFFF" d="M696.434,323.762h54.392l66.986,185.788h-45.23l-16.604-48.952h-67.846l-16.316,48.952h-44.086
			L696.434,323.762z M746.245,430.826l-23.475-69.85h-1.145l-23.475,69.85H746.245z"/>
		<path fill="#FFFFFF" d="M838.423,323.762h44.657v154.012h91.319v31.776H838.423V323.762z"/>
		<path fill="#FFFFFF" d="M1004.454,323.762h44.657v154.012h91.319v31.776h-135.977V323.762z"/>
		<path fill="#FFFFFF" d="M1170.485,323.762h141.702v31.775h-97.045v42.654h87.599v31.775h-87.599v47.807h99.908v31.776h-144.565
			V323.762z"/>
		<path fill="#FFFFFF" d="M1345.105,323.762h83.59c24.807,0,42.748,3.006,53.818,9.018c11.066,6.012,16.604,16.08,16.604,30.201
			v32.635c0,10.878-3.864,19.422-11.594,25.621c-7.729,6.203-17.99,10.162-30.773,11.88l53.818,76.434h-51.528l-48.666-72.999
			h-20.611v72.999h-44.657V323.762z M1428.123,407.066c10.493,0,17.65-1.383,21.47-4.151c3.815-2.765,5.726-8.159,5.726-16.175
			v-13.168c0-6.87-2.053-11.594-6.155-14.17c-4.105-2.576-11.119-3.865-21.04-3.865h-38.36v51.529H1428.123z"/>
		<path fill="#FFFFFF" d="M1585.856,435.12l-67.273-111.358h50.67l39.219,72.713l38.932-72.713h50.956l-67.846,110.785v75.003
			h-44.657V435.12z"/>
	</g>
	<g>
		<path fill="#80827F" d="M491.593,116.633h-43.739V92.358h121.376v24.275h-43.521v117.658h-34.116V116.633z"/>
		<path fill="#80827F" d="M631.227,234.948c-6.636-1.019-13.524-2.768-20.666-5.249c-7.729-2.624-13.778-6.889-18.152-12.793
			s-6.561-13.084-6.561-21.542v-62.109c0-6.999,1.564-13.266,4.702-18.808c3.133-5.539,7.179-9.913,12.138-13.122
			c4.373-2.768,9.766-5.102,16.183-6.999c6.414-1.893,12.391-3.062,17.934-3.499c5.102-0.438,10.497-0.656,16.184-0.656
			c6.704,0,12.537,0.256,17.495,0.765c4.955,0.513,10.498,1.568,16.621,3.171c6.998,2.043,12.756,4.521,17.277,7.436
			c4.517,2.918,8.31,6.998,11.372,12.247c3.205,5.396,4.811,11.884,4.811,19.464v62.109c0,7.873-2.077,14.652-6.232,20.338
			c-4.155,5.687-9.879,9.988-17.168,12.903c-13.121,5.249-27.849,7.873-44.176,7.873
			C645.114,236.479,637.859,235.966,631.227,234.948z M665.563,211.657c3.28-0.362,6.67-1.056,10.169-2.078
			c3.499-1.019,6.157-2.734,7.982-5.14c1.821-2.406,2.733-5.43,2.733-9.076v-62.328c0-6.705-2.699-11.481-8.092-14.325
			c-5.396-2.843-13.777-4.265-25.149-4.265s-19.758,1.388-25.15,4.155c-5.396,2.771-8.092,7.583-8.092,14.434v62.328
			c0,3.646,0.946,6.67,2.843,9.076c1.894,2.406,4.665,4.121,8.311,5.14c3.499,1.021,6.89,1.715,10.17,2.078
			c3.28,0.365,7.326,0.546,12.138,0.546C658.235,212.203,662.281,212.022,665.563,211.657z"/>
		<path fill="#80827F" d="M748.118,92.358h56.861c13.85,0,24.821,0.95,32.913,2.843c8.092,1.896,13.997,5.214,17.715,9.951
			c3.718,4.74,5.576,11.338,5.576,19.792v26.899c0,9.332-2.006,16.621-6.014,21.87c-4.012,5.249-10.354,8.966-19.026,11.153
			c-8.677,2.187-20.377,3.281-35.101,3.281h-18.809v46.145h-34.116V92.358z M803.886,164.747c8.892,0,15.161-1.056,18.808-3.171
			c3.643-2.112,5.468-5.72,5.468-10.825v-22.745c0-4.664-1.75-7.726-5.249-9.185c-3.355-1.456-9.841-2.187-19.464-2.187h-21.214
			v48.113H803.886z"/>
		<path fill="#80827F" d="M973.154,92.358h41.553l51.175,141.933h-34.554l-12.685-37.397h-51.831l-12.466,37.397h-33.679
			L973.154,92.358z M1011.208,174.15l-17.934-53.362H992.4l-17.934,53.362H1011.208z"/>
		<path fill="#80827F" d="M1081.628,92.358h63.859c18.951,0,32.657,2.296,41.114,6.889c8.454,4.593,12.685,12.285,12.685,23.072
			v24.931c0,8.311-2.952,14.837-8.857,19.573c-5.904,4.74-13.743,7.764-23.51,9.076l41.115,58.392h-39.365l-37.179-55.768h-15.746
			v55.768h-34.116V92.358z M1145.05,155.999c8.017,0,13.483-1.056,16.402-3.171c2.914-2.112,4.374-6.233,4.374-12.356v-10.06
			c0-5.249-1.569-8.857-4.702-10.825c-3.137-1.968-8.495-2.953-16.074-2.953h-29.306v39.365H1145.05z"/>
		<path fill="#80827F" d="M1260.521,116.633h-43.739V92.358h121.376v24.275h-43.521v117.658h-34.116V116.633z"/>
	</g>
</g>
<g id="Capa_4">
	<g>
		<g>
			<path fill="#5EF90F" d="M357.261,287.592h-94.285l87.394-169.646c0.822-1.598,1.252-3.369,1.252-5.166V11.278
				C351.622,5.049,346.571,0,340.345,0h-95.865c-4.358,0-8.327,2.512-10.192,6.45l-47.696,100.692H13.279
				C7.051,107.142,2,112.191,2,118.42v135.337c0,6.229,5.051,11.278,11.279,11.278h88.893L14.469,440.441
				c-0.784,1.566-1.19,3.294-1.19,5.044v95.864c0,6.229,5.051,11.277,11.278,11.277h101.502c4.358,0,8.328-2.512,10.193-6.449
				l47.696-100.692h173.313c6.229,0,11.279-5.049,11.279-11.278V298.87C368.54,292.641,363.489,287.592,357.261,287.592z
				 M345.983,422.929H176.811c-4.358,0-8.327,2.511-10.192,6.45l-47.696,100.692H35.835v-81.923l94.674-189.347
				c1.748-3.497,1.56-7.648-0.494-10.974c-2.055-3.326-5.686-5.349-9.594-5.349H24.557V129.698h169.171
				c4.358,0,8.327-2.511,10.192-6.45l47.696-100.691h77.449v87.491l-94.612,183.658c-1.8,3.495-1.65,7.678,0.397,11.036
				c2.047,3.357,5.697,5.406,9.629,5.406h101.504V422.929L345.983,422.929z"/>
		</g>
	</g>
</g>
</svg>
